<?xml version="1.0" encoding="utf-8"?>
<!-- Generator: Adobe Illustrator 27.9.1, SVG Export Plug-In . SVG Version: 6.00 Build 0)  -->
<svg version="1.1" id="Layer_1" xmlns="http://www.w3.org/2000/svg" xmlns:xlink="http://www.w3.org/1999/xlink" x="0px" y="0px"
	 viewBox="0 0 94.8 100" style="enable-background:new 0 0 94.8 100;" xml:space="preserve">
<style type="text/css">
	.st0{fill:#141414;}
	.st1{fill:#FF0077;}
</style>
<rect class="st0" width="94.8" height="100"/>
<g>
	<g>
		<g>
			<g>
				<path class="st1" d="M29.4,35L29.4,35l0-7.9h0v0h-7.8v0h-5.4c-2.2,0-3.9,1.8-3.9,3.9v0c0,2.2,1.8,3.9,3.9,3.9h5.4v44.2h-5.4
					c-2.2,0-3.9,1.8-3.9,3.9v0c0,2.2,1.8,3.9,3.9,3.9h5.4v0h7.8v0h29c2.2,0,3.9-1.8,3.9-3.9v0c0-2.2-1.8-3.9-3.9-3.9h-29V35z"/>
			</g>
		</g>
		<g>
			<g>
				<path class="st1" d="M61,12.9H45.2v0h0v0h-7.8v0H16.2c-2.2,0-3.9,1.8-3.9,3.9v0c0,2.2,1.8,3.9,3.9,3.9h21.2v47.4
					c0,2.2,1.8,3.9,3.9,3.9h0c2.2,0,3.9-1.8,3.9-3.9V20.8h15.9c7.4,0,13.6,6,13.6,13.5c0,7.5-6,13.5-13.5,13.5h-6.9
					c-2.2,0-3.9,1.8-3.9,3.9v0c0,2.2,1.8,3.9,3.9,3.9h6.9c11.8,0,21.3-9.6,21.3-21.4C82.5,22.4,72.8,12.9,61,12.9z"/>
			</g>
		</g>
	</g>
</g>
</svg>
