<?xml version="1.0" encoding="utf-8"?>
<!-- Generator: Adobe Illustrator 27.9.1, SVG Export Plug-In . SVG Version: 6.00 Build 0)  -->
<svg version="1.1" id="Layer_1" xmlns="http://www.w3.org/2000/svg" xmlns:xlink="http://www.w3.org/1999/xlink" x="0px" y="0px"
	 viewBox="0 0 434.9 112.4" style="enable-background:new 0 0 434.9 112.4;" xml:space="preserve">
<style type="text/css">
	.st0{fill:#FF0077;}
	.st1{fill:#FFFFFF;}
</style>
<g>
	<g>
		<g>
			<g>
				<path class="st0" d="M25,32.1L25,32.1l0-11.5h0v0H13.6v0H5.7c-3.2,0-5.7,2.6-5.7,5.7v0c0,3.2,2.6,5.7,5.7,5.7h7.9v64.3H5.7
					C2.6,96.4,0,99,0,102.2v0c0,3.2,2.6,5.7,5.7,5.7h7.9v0H25v0h42.1c3.2,0,5.7-2.6,5.7-5.7v0c0-3.2-2.6-5.7-5.7-5.7H25V32.1z"/>
			</g>
		</g>
		<g>
			<g>
				<path class="st0" d="M71,0L47.9,0v0h0v0H36.5v0H5.7C2.6,0,0,2.6,0,5.7v0c0,3.2,2.6,5.7,5.7,5.7h30.8v69c0,3.2,2.6,5.7,5.7,5.7h0
					c3.2,0,5.7-2.6,5.7-5.7v-69h23.2c10.8,0,19.7,8.7,19.8,19.6c0,10.9-8.7,19.7-19.6,19.7H61.2c-3.2,0-5.7,2.6-5.7,5.7v0
					c0,3.2,2.6,5.7,5.7,5.7h10.1c17.1,0,31-13.9,31-31.1C102.2,13.9,88.1,0,71,0z"/>
			</g>
		</g>
	</g>
	<g>
		<path class="st1" d="M174.3,59.5c0,0-18,0-18,0c0,0,0-49.4,0-49.4c0-5.3-2.7-7.9-7.9-7.9h-11.3v11.9c0,0,6,0,6,0
			c0,0,0,49.4,0,49.4c0,5.3,2.7,7.9,7.9,7.9h27.8c5.2,0,7.9-2.7,7.9-7.9V53.3h-12.4C174.3,53.3,174.3,59.5,174.3,59.5z"/>
		<path class="st1" d="M230.2,1.1c-19.8,0-35.3,15.5-35.3,35.3c0,20.3,15.5,36.2,35.3,36.2c19.9,0,35.4-15.9,35.4-36.2
			C265.6,16.6,250.1,1.1,230.2,1.1z M230.2,59.9c-12.2,0-21.8-10.3-21.8-23.5c0-12.7,9.6-22.7,21.8-22.7c12.3,0,21.8,10,21.8,22.7
			C252,49.5,242.4,59.9,230.2,59.9z"/>
		<path class="st1" d="M334.2,35.2h-10.6v11.9c0,0,6,0,6,0c0,0,0,5.8,0,5.8c-1.7,1.7-7.6,6.9-16.5,6.9c-12.5,0-21.6-9.8-21.6-23.3
			c0-13.1,9.2-22.9,21.4-22.9c9.8,0,16.4,5.7,16.4,5.8l1.6,1.4l7.6-9.8l-1.2-1.2c-0.3-0.4-8.4-8.7-24.7-8.7
			c-19.5,0-34.8,15.6-34.8,35.4c0,20.5,14.5,36,33.7,36c8.6,0,14.8-3.2,18.4-5.7v4.6h12.1V43.1C342.1,37.9,339.4,35.2,334.2,35.2z"
			/>
		<path class="st1" d="M391,1.1c-19.8,0-35.3,15.5-35.3,35.3c0,20.3,15.5,36.2,35.3,36.2c19.9,0,35.4-15.9,35.4-36.2
			C426.4,16.6,410.9,1.1,391,1.1z M391,59.9c-12.2,0-21.8-10.3-21.8-23.5c0-12.7,9.6-22.7,21.8-22.7c12.3,0,21.8,10,21.8,22.7
			C412.8,49.5,403.2,59.9,391,59.9z"/>
	</g>
	<g>
		<path class="st1" d="M140.6,93.7h-1.9v-2.5h9.1c3.8,0,6.5,2.6,6.5,6.5c0,3.9-2.7,6.6-6.5,6.6h-4.3v7.7h-2.9V93.7z M147.4,101.8
			c2.4,0,3.9-1.6,3.9-4.1c0-2.5-1.5-4-3.9-4h-3.8v8H147.4z"/>
		<path class="st1" d="M163.9,93.7H162v-2.5h9c3.6,0,6.2,2.3,6.2,6.1c0,3.5-2.3,5.2-3.7,5.5v0.1c0,0,0.5,0.3,0.9,0.9l2.5,5
			c0.3,0.6,0.8,0.7,1.5,0.7h0.4v2.5h-1.4c-1.6,0-2.2-0.2-2.9-1.6l-2.8-5.6c-0.5-1-0.9-1.1-2.1-1.1h-2.7v8.3h-2.9V93.7z M170.6,101.2
			c2.2,0,3.6-1.4,3.6-3.8c0-2.3-1.3-3.7-3.5-3.7h-3.9v7.5H170.6z"/>
		<path class="st1" d="M196.4,90.8c6,0,10.7,4.6,10.7,10.6c0,6.1-4.7,10.9-10.7,10.9c-6,0-10.6-4.8-10.6-10.9
			C185.8,95.5,190.4,90.8,196.4,90.8z M196.4,109.6c4.2,0,7.6-3.5,7.6-8.1c0-4.4-3.4-7.9-7.6-7.9c-4.2,0-7.6,3.4-7.6,7.9
			C188.8,106,192.2,109.6,196.4,109.6z"/>
		<path class="st1" d="M217,93.7h-1.9v-2.5h11.4c1.3,0,1.9,0.6,1.9,1.9v2.6h-2.7v-1.3c0-0.4-0.2-0.6-0.6-0.6h-5.1v6.8h7.1v2.5h-7.1
			v8.9H217V93.7z"/>
		<path class="st1" d="M237.9,93.7H236v-2.5h12.2c1.3,0,1.9,0.6,1.9,1.9v2.6h-2.7v-1.3c0-0.4-0.2-0.6-0.6-0.6h-5.9v6.5h7.3v2.5h-7.3
			v6c0,0.4,0.2,0.6,0.6,0.6h6c0.4,0,0.6-0.2,0.6-0.6v-1.3h2.7v2.6c0,1.3-0.6,1.9-1.9,1.9h-9.2c-1.3,0-1.9-0.6-1.9-1.9V93.7z"/>
		<path class="st1" d="M260.2,107.2c0,0,2.1,2.5,5.2,2.5c1.9,0,3.6-1.2,3.6-3.1c0-4.4-10-3.7-10-10.2c0-3.1,2.7-5.6,6.6-5.6
			c2.2,0,5.9,1,5.9,3.8v1.7h-2.7v-1c0-1.1-1.6-1.9-3.2-1.9c-2.2,0-3.6,1.2-3.6,2.8c0,4.2,10,3.3,10,10.1c0,3.2-2.5,5.9-6.6,5.9
			c-4.4,0-6.9-3.1-6.9-3.1L260.2,107.2z"/>
		<path class="st1" d="M281.7,107.2c0,0,2.1,2.5,5.2,2.5c1.9,0,3.6-1.2,3.6-3.1c0-4.4-10-3.7-10-10.2c0-3.1,2.7-5.6,6.6-5.6
			c2.2,0,5.9,1,5.9,3.8v1.7h-2.7v-1c0-1.1-1.6-1.9-3.2-1.9c-2.2,0-3.6,1.2-3.6,2.8c0,4.2,10,3.3,10,10.1c0,3.2-2.5,5.9-6.6,5.9
			c-4.4,0-6.9-3.1-6.9-3.1L281.7,107.2z"/>
		<path class="st1" d="M301.7,109.5h2V93.7h-2v-2.5h6.8v2.5h-2v15.7h2v2.5h-6.8V109.5z"/>
		<path class="st1" d="M327.3,90.8c6,0,10.7,4.6,10.7,10.6c0,6.1-4.7,10.9-10.7,10.9c-6,0-10.6-4.8-10.6-10.9
			C316.7,95.5,321.3,90.8,327.3,90.8z M327.3,109.6c4.2,0,7.6-3.5,7.6-8.1c0-4.4-3.4-7.9-7.6-7.9c-4.2,0-7.6,3.4-7.6,7.9
			C319.7,106,323.1,109.6,327.3,109.6z"/>
		<path class="st1" d="M346,109.5h1.3c0.4,0,0.6-0.2,0.6-0.6V91.2h2.7l9.2,13.2c0.8,1.1,1.7,2.8,1.7,2.8h0.1c0,0-0.2-1.7-0.2-2.8
			V93.1c0-1.3,0.6-1.9,1.9-1.9h2.9v2.5h-1.3c-0.4,0-0.6,0.2-0.6,0.6V112h-2.6l-9.2-13.2c-0.8-1.1-1.7-2.8-1.7-2.8h-0.1
			c0,0,0.2,1.7,0.2,2.8v11.3c0,1.3-0.6,1.9-1.9,1.9h-3V109.5z"/>
		<path class="st1" d="M373.5,109.5h0.4c0.5,0,0.8-0.1,1-0.6l6.5-17.6h3.1l6.5,17.6c0.2,0.5,0.5,0.6,1,0.6h0.4v2.5h-1.6
			c-1.5,0-1.9-0.4-2.4-1.7l-1.6-4.3h-7.6l-1.6,4.3c-0.5,1.4-1,1.7-2.4,1.7h-1.6V109.5z M386,103.5l-2.3-6.3
			c-0.4-1.1-0.8-2.9-0.8-2.9h-0.1c0,0-0.4,1.8-0.8,2.9l-2.3,6.3H386z"/>
		<path class="st1" d="M401.6,94.4c0-0.4-0.2-0.6-0.6-0.6h-1.3v-2.5h3c1.3,0,1.9,0.6,1.9,1.9v15.7c0,0.4,0.2,0.6,0.6,0.6h5.7
			c0.4,0,0.6-0.2,0.6-0.6v-1.3h2.7v2.6c0,1.3-0.6,1.9-1.9,1.9h-8.9c-1.3,0-1.9-0.6-1.9-1.9V94.4z"/>
		<path class="st1" d="M423.1,107.2c0,0,2.1,2.5,5.2,2.5c1.9,0,3.6-1.2,3.6-3.1c0-4.4-10-3.7-10-10.2c0-3.1,2.7-5.6,6.6-5.6
			c2.2,0,5.9,1,5.9,3.8v1.7h-2.7v-1c0-1.1-1.6-1.9-3.2-1.9c-2.2,0-3.6,1.2-3.6,2.8c0,4.2,10,3.3,10,10.1c0,3.2-2.5,5.9-6.6,5.9
			c-4.4,0-6.9-3.1-6.9-3.1L423.1,107.2z"/>
	</g>
</g>
</svg>
